<?xml version="1.0" encoding="UTF-8"?>
<!DOCTYPE svg PUBLIC "-//W3C//DTD SVG 1.1//EN" "http://www.w3.org/Graphics/SVG/1.1/DTD/svg11.dtd">
<svg xmlns="http://www.w3.org/2000/svg" version="1.1" width="3200px" height="2400px" style="shape-rendering:geometricPrecision; text-rendering:geometricPrecision; image-rendering:optimizeQuality; fill-rule:evenodd; clip-rule:evenodd" xmlns:xlink="http://www.w3.org/1999/xlink">
<g><path style="opacity:0.961" fill="#4c2a08" d="M 2097.5,683.5 C 2101.92,687.221 2106.92,690.221 2112.5,692.5C 2207.02,745.835 2300.02,798.835 2391.5,851.5C 2388.11,851.623 2384.45,851.623 2380.5,851.5C 2380.5,929.167 2380.5,1006.83 2380.5,1084.5C 2379.17,1107.83 2379.17,1131.17 2380.5,1154.5C 2380.5,1458.01 2380.5,1761.34 2380.5,2064.5C 1935.32,2065.17 1490.16,2065.84 1045,2066.5C 1028.19,2065.55 1011.35,2065.22 994.5,2065.5C 994.5,1929.83 994.5,1794.17 994.5,1658.5C 995.833,1613.5 995.833,1568.5 994.5,1523.5C 994.5,1363.17 994.5,1202.83 994.5,1042.5C 994.5,998.833 994.5,955.167 994.5,911.5C 994.5,891.5 994.5,871.5 994.5,851.5C 991.223,851.216 988.057,851.549 985,852.5C 984.5,852 984,851.5 983.5,851C 987.419,849.46 990.919,847.293 994,844.5C 994.495,842.527 994.662,840.527 994.5,838.5C 998.967,838.867 1003.3,838.367 1007.5,837C 1100.57,780.935 1193.91,725.269 1287.5,670C 1547.49,667.907 1807.49,666.907 2067.5,667C 2077.39,672.778 2087.39,678.278 2097.5,683.5 Z"/></g>
<g><path style="opacity:1" fill="#d8a862" d="M 2349.5,837.5 C 1907.5,838.833 1465.5,838.833 1023.5,837.5C 1112.6,784.92 1201.6,732.087 1290.5,679C 1530.5,677.759 1770.5,676.592 2010.5,675.5C 2028.5,675.667 2046.5,675.833 2064.5,676C 2159.23,730.363 2254.23,784.197 2349.5,837.5 Z"/></g>
<g><path style="opacity:0.307" fill="#b08b57" d="M 2097.5,683.5 C 2103.33,685.244 2108.33,688.244 2112.5,692.5C 2106.92,690.221 2101.92,687.221 2097.5,683.5 Z"/></g>
<g><path style="opacity:1" fill="#613e16" d="M 1023.5,837.5 C 1465.5,838.833 1907.5,838.833 2349.5,837.5C 2350.38,837.369 2351.04,837.702 2351.5,838.5C 2130,838.833 1908.5,839.167 1687,839.5C 1465.5,839.167 1244,838.833 1022.5,838.5C 1022.62,837.893 1022.96,837.56 1023.5,837.5 Z"/></g>
<g><path style="opacity:1" fill="#d8a862" d="M 1005.5,851.5 C 1459.83,851.5 1914.17,851.5 2368.5,851.5C 2368.5,1252.17 2368.5,1652.83 2368.5,2053.5C 1914.17,2053.5 1459.83,2053.5 1005.5,2053.5C 1005.5,1652.83 1005.5,1252.17 1005.5,851.5 Z"/></g>
<g><path style="opacity:0.604" fill="#ba965f" d="M 994.5,911.5 C 994.5,955.167 994.5,998.833 994.5,1042.5C 993.261,1022.33 992.261,1002 991.5,981.5C 992.116,969.188 992.116,957.188 991.5,945.5C 992,933.972 993,922.638 994.5,911.5 Z"/></g>
<g><path style="opacity:1" fill="#4c2b09" d="M 1070.5,911.5 C 1483.83,911.5 1897.17,911.5 2310.5,911.5C 2310.33,1272.17 2310.5,1632.83 2311,1993.5C 2312.54,1995.38 2314.38,1996.88 2316.5,1998C 2314.1,1998.19 2311.77,1998.69 2309.5,1999.5C 2103,1999.83 1896.5,2000.17 1690,2000.5C 1483.5,2000.17 1277,1999.83 1070.5,1999.5C 1066.19,1999.06 1065.69,1997.72 1069,1995.5C 1069.17,1634.14 1069.67,1272.81 1070.5,911.5 Z"/></g>
<g><path style="opacity:1" fill="#79562c" d="M 2065.5,922.5 C 1806.83,922.5 1548.17,922.5 1289.5,922.5C 1289.83,934.012 1289.49,945.346 1288.5,956.5C 1288.5,944.833 1288.5,933.167 1288.5,921.5C 1547.67,921.167 1806.67,921.5 2065.5,922.5 Z"/></g>
<g><path style="opacity:1" fill="#866235" d="M 1279.5,922.5 C 1213.5,922.5 1147.5,922.5 1081.5,922.5C 1081.17,1276 1081.5,1629.33 1082.5,1982.5C 1082.22,1983.29 1081.72,1983.96 1081,1984.5C 1080.5,1630.17 1080.33,1275.83 1080.5,921.5C 1147,921.168 1213.34,921.501 1279.5,922.5 Z"/></g>
<g><path style="opacity:1" fill="#ba955f" d="M 1279.5,922.5 C 1277.87,1216.83 1276.04,1511.17 1274,1805.5C 1210.3,1864.71 1146.46,1923.71 1082.5,1982.5C 1081.5,1629.33 1081.17,1276 1081.5,922.5C 1147.5,922.5 1213.5,922.5 1279.5,922.5 Z"/></g>
<g><path style="opacity:1" fill="#ba955f" d="M 2065.5,922.5 C 2065.5,1210.17 2065.5,1497.83 2065.5,1785.5C 2064.51,1792.31 2064.18,1799.31 2064.5,1806.5C 2034.17,1806.5 2003.83,1806.5 1973.5,1806.5C 1743.5,1805.45 1513.5,1804.12 1283.5,1802.5C 1285.6,1520.5 1287.26,1238.5 1288.5,956.5C 1289.49,945.346 1289.83,934.012 1289.5,922.5C 1548.17,922.5 1806.83,922.5 2065.5,922.5 Z"/></g>
<g><path style="opacity:1" fill="#ba955f" d="M 2075.5,922.5 C 2149.83,922.5 2224.17,922.5 2298.5,922.5C 2298.83,1276 2298.5,1629.33 2297.5,1982.5C 2223.21,1924.71 2149.04,1866.71 2075,1808.5C 2075.49,1513.18 2075.65,1217.84 2075.5,922.5 Z"/></g>
<g><path style="opacity:1" fill="#9a7645" d="M 2075.5,922.5 C 2150,921.501 2224.66,921.167 2299.5,921.5C 2299.83,1276 2299.5,1630.33 2298.5,1984.5C 2298.17,1983.83 2297.83,1983.17 2297.5,1982.5C 2298.5,1629.33 2298.83,1276 2298.5,922.5C 2224.17,922.5 2149.83,922.5 2075.5,922.5 Z"/></g>
<g><path style="opacity:1" fill="#4c2b09" d="M 2299.5,921.5 C 2300.17,1098.67 2300.5,1276 2300.5,1453.5C 2300.17,1630.83 2299.83,1808.17 2299.5,1985.5C 2298.89,1985.38 2298.56,1985.04 2298.5,1984.5C 2299.5,1630.33 2299.83,1276 2299.5,921.5 Z"/></g>
<g><path style="opacity:1" fill="#99e185" d="M 1843.5,1081.5 C 1845.22,1081.63 1846.88,1081.96 1848.5,1082.5C 1853.57,1096.94 1853.74,1111.61 1849,1126.5C 1836.69,1161.09 1823.03,1195.09 1808,1228.5C 1807.17,1230 1806,1231.17 1804.5,1232C 1797.91,1230.69 1791.25,1229.36 1784.5,1228C 1781.06,1225.86 1777.89,1223.36 1775,1220.5C 1756.67,1187.51 1734.67,1157.18 1709,1129.5C 1707.91,1127.92 1707.07,1126.26 1706.5,1124.5C 1706.04,1121.52 1705.7,1118.52 1705.5,1115.5C 1706.28,1112.89 1707.94,1111.05 1710.5,1110C 1715.26,1109.19 1719.92,1109.52 1724.5,1111C 1737.41,1117.57 1748.91,1126.07 1759,1136.5C 1749.25,1101.65 1735.58,1068.32 1718,1036.5C 1711.94,1026.44 1704.44,1017.61 1695.5,1010C 1681.76,998.933 1667.1,997.6 1651.5,1006C 1625.85,1021.32 1606.02,1042.15 1592,1068.5C 1568.87,1116.9 1549.87,1166.9 1535,1218.5C 1529.18,1234.32 1519.18,1237.99 1505,1229.5C 1502.81,1226.45 1501.14,1223.11 1500,1219.5C 1499.78,1196.57 1503.45,1174.24 1511,1152.5C 1523.35,1113.09 1539.02,1075.09 1558,1038.5C 1574.69,1009.48 1597.19,985.976 1625.5,968C 1658.75,948.844 1691.09,950.177 1722.5,972C 1735.06,982.231 1745.9,994.064 1755,1007.5C 1767.86,1028.88 1778.86,1051.21 1788,1074.5C 1794.54,1091.79 1800.87,1109.12 1807,1126.5C 1811.93,1112.13 1819.76,1099.63 1830.5,1089C 1834.89,1086.48 1839.22,1083.98 1843.5,1081.5 Z"/></g>
<g><path style="opacity:1" fill="#689138" d="M 1843.5,1081.5 C 1845.45,1080.07 1847.12,1080.4 1848.5,1082.5C 1846.88,1081.96 1845.22,1081.63 1843.5,1081.5 Z"/></g>
<g><path style="opacity:1" fill="#76ab4e" d="M 1705.5,1115.5 C 1705.7,1118.52 1706.04,1121.52 1706.5,1124.5C 1704.52,1121.63 1704.19,1118.63 1705.5,1115.5 Z"/></g>
<g><path style="opacity:0.629" fill="#76542a" d="M 2380.5,1084.5 C 2381.04,1107.62 2381.04,1130.95 2380.5,1154.5C 2379.17,1131.17 2379.17,1107.83 2380.5,1084.5 Z"/></g>
<g><path style="opacity:1" fill="#99e185" d="M 1931.5,1359.5 C 1931.97,1360.91 1932.97,1361.57 1934.5,1361.5C 1938.42,1363.92 1941.92,1366.92 1945,1370.5C 1958.22,1385.72 1969.89,1402.05 1980,1419.5C 1997.89,1449.62 2013.39,1480.95 2026.5,1513.5C 2026.41,1516.15 2027.08,1518.49 2028.5,1520.5C 2029.11,1521.39 2029.44,1522.39 2029.5,1523.5C 2029.23,1525.38 2029.9,1526.71 2031.5,1527.5C 2032.15,1529.44 2032.48,1531.44 2032.5,1533.5C 2032.41,1536.15 2033.08,1538.49 2034.5,1540.5C 2035.45,1541.92 2035.78,1543.59 2035.5,1545.5C 2035.41,1548.15 2036.08,1550.49 2037.5,1552.5C 2040.15,1569.01 2041.15,1585.67 2040.5,1602.5C 2039.38,1606.29 2038.72,1610.29 2038.5,1614.5C 2037.03,1627.75 2033.03,1640.08 2026.5,1651.5C 2025.09,1651.97 2024.43,1652.97 2024.5,1654.5C 2022.78,1656.22 2021.45,1658.22 2020.5,1660.5C 2017.43,1662.57 2015.09,1665.24 2013.5,1668.5C 1996.51,1682.47 1976.85,1690.14 1954.5,1691.5C 1945.82,1691.54 1937.15,1691.2 1928.5,1690.5C 1923.13,1690.11 1917.79,1689.45 1912.5,1688.5C 1910.49,1687.08 1908.15,1686.41 1905.5,1686.5C 1899.54,1686.26 1893.88,1684.93 1888.5,1682.5C 1886.49,1681.08 1884.15,1680.41 1881.5,1680.5C 1879.42,1680.03 1877.42,1679.36 1875.5,1678.5C 1873.49,1677.08 1871.15,1676.41 1868.5,1676.5C 1845.14,1669.6 1822.48,1660.94 1800.5,1650.5C 1800.17,1650.83 1799.83,1651.17 1799.5,1651.5C 1803,1657.49 1805.66,1663.82 1807.5,1670.5C 1807.41,1673.15 1808.08,1675.49 1809.5,1677.5C 1811.74,1684.96 1812.07,1692.62 1810.5,1700.5C 1809.53,1703.31 1808.86,1706.31 1808.5,1709.5C 1806.99,1711.44 1804.99,1711.94 1802.5,1711C 1795.56,1707.95 1789.39,1703.78 1784,1698.5C 1780.62,1694.62 1777.45,1690.62 1774.5,1686.5C 1774.57,1684.97 1773.91,1683.97 1772.5,1683.5C 1772.57,1681.97 1771.91,1680.97 1770.5,1680.5C 1770.67,1679.51 1770.34,1678.84 1769.5,1678.5C 1769.57,1676.97 1768.91,1675.97 1767.5,1675.5C 1765.43,1672.41 1763.76,1669.08 1762.5,1665.5C 1762.57,1663.97 1761.91,1662.97 1760.5,1662.5C 1751.11,1642.06 1740.95,1622.06 1730,1602.5C 1729,1599.17 1728,1595.83 1727,1592.5C 1723.14,1588.58 1721.47,1583.92 1722,1578.5C 1723.83,1576.93 1725.99,1576.09 1728.5,1576C 1730.95,1571.55 1734.62,1568.55 1739.5,1567C 1753.44,1565.65 1767.1,1566.98 1780.5,1571C 1809.35,1574.99 1838.35,1576.99 1867.5,1577C 1877.5,1582.36 1878.17,1589.03 1869.5,1597C 1854.01,1604.09 1837.68,1608.09 1820.5,1609C 1851.64,1622.45 1883.64,1633.45 1916.5,1642C 1930.68,1645.13 1945.01,1646.13 1959.5,1645C 1975.82,1642.84 1986.48,1634 1991.5,1618.5C 1992.92,1616.49 1993.59,1614.15 1993.5,1611.5C 1994.26,1604.84 1994.93,1598.18 1995.5,1591.5C 1996.17,1588.35 1996.5,1585.02 1996.5,1581.5C 1996.67,1576.24 1996,1571.24 1994.5,1566.5C 1991.17,1546.49 1985.67,1527.16 1978,1508.5C 1970.1,1492.36 1961.93,1476.36 1953.5,1460.5C 1953.57,1458.97 1952.91,1457.97 1951.5,1457.5C 1950.01,1453.19 1948.01,1449.19 1945.5,1445.5C 1945.57,1443.97 1944.91,1442.97 1943.5,1442.5C 1939.72,1434.47 1935.39,1426.8 1930.5,1419.5C 1930.57,1417.97 1929.91,1416.97 1928.5,1416.5C 1927.74,1414.63 1926.74,1412.96 1925.5,1411.5C 1925.57,1409.97 1924.91,1408.97 1923.5,1408.5C 1920.77,1404.12 1918.1,1399.79 1915.5,1395.5C 1915.57,1393.97 1914.91,1392.97 1913.5,1392.5C 1911.95,1389.06 1910.11,1385.73 1908,1382.5C 1907.19,1380.56 1906.69,1378.56 1906.5,1376.5C 1906.43,1372.02 1907.09,1367.69 1908.5,1363.5C 1910.17,1362.5 1911.5,1361.17 1912.5,1359.5C 1914.51,1357.07 1917.17,1356.07 1920.5,1356.5C 1924.42,1356.63 1928.09,1357.63 1931.5,1359.5 Z"/></g>
<g><path style="opacity:1" fill="#74923e" d="M 1931.5,1359.5 C 1933.03,1359.43 1934.03,1360.09 1934.5,1361.5C 1932.97,1361.57 1931.97,1360.91 1931.5,1359.5 Z"/></g>
<g><path style="opacity:1" fill="#779341" d="M 1912.5,1359.5 C 1911.5,1361.17 1910.17,1362.5 1908.5,1363.5C 1908.83,1361.17 1910.17,1359.83 1912.5,1359.5 Z"/></g>
<g><path style="opacity:1" fill="#70963f" d="M 1908.5,1363.5 C 1907.09,1367.69 1906.43,1372.02 1906.5,1376.5C 1905.36,1373.36 1905.19,1370.03 1906,1366.5C 1906.85,1365.43 1907.69,1364.43 1908.5,1363.5 Z"/></g>
<g><path style="opacity:1" fill="#6ead4e" d="M 1428.5,1387.5 C 1425.83,1387.83 1423.17,1388.17 1420.5,1388.5C 1423.04,1386.59 1425.71,1386.25 1428.5,1387.5 Z"/></g>
<g><path style="opacity:1" fill="#99e185" d="M 1428.5,1387.5 C 1430.67,1392.47 1433.83,1396.81 1438,1400.5C 1439.93,1404.43 1440.76,1408.59 1440.5,1413C 1436.54,1435.8 1432.71,1458.63 1429,1481.5C 1427.83,1497.49 1426.83,1513.49 1426,1529.5C 1424.78,1538.03 1419.94,1541.53 1411.5,1540C 1409.39,1538.86 1407.56,1537.36 1406,1535.5C 1399.64,1521.21 1396.14,1506.21 1395.5,1490.5C 1395.17,1489.17 1394.83,1487.83 1394.5,1486.5C 1376.87,1521.57 1363.7,1558.24 1355,1596.5C 1354.12,1607.55 1354.45,1618.55 1356,1629.5C 1360.24,1643.4 1369.41,1652.24 1383.5,1656C 1410.74,1661.44 1437.74,1660.44 1464.5,1653C 1485.84,1646.33 1506.5,1638 1526.5,1628C 1557.59,1613.29 1587.93,1597.29 1617.5,1580C 1623.46,1578.22 1629.46,1578.05 1635.5,1579.5C 1636.83,1581.5 1638.5,1583.17 1640.5,1584.5C 1642.93,1586.51 1643.93,1589.17 1643.5,1592.5C 1642.45,1602.09 1638.12,1609.92 1630.5,1616C 1612.18,1630.64 1592.51,1643.3 1571.5,1654C 1540.66,1670.76 1508.66,1684.76 1475.5,1696C 1440.8,1706.84 1405.8,1708.17 1370.5,1700C 1362.61,1698.39 1355.94,1694.72 1350.5,1689C 1339.67,1678.83 1328.83,1668.67 1318,1658.5C 1306.76,1633.01 1304.42,1606.68 1311,1579.5C 1320.95,1538.64 1335.45,1499.47 1354.5,1462C 1341.55,1467.82 1327.89,1471.32 1313.5,1472.5C 1306.97,1472.29 1300.64,1471.13 1294.5,1469C 1293.41,1466.94 1293.24,1464.77 1294,1462.5C 1300.45,1449.72 1309.95,1439.89 1322.5,1433C 1354.54,1416.81 1387.21,1401.98 1420.5,1388.5C 1423.17,1388.17 1425.83,1387.83 1428.5,1387.5 Z"/></g>
<g><path style="opacity:1" fill="#7f9444" d="M 1913.5,1392.5 C 1914.91,1392.97 1915.57,1393.97 1915.5,1395.5C 1914.09,1395.03 1913.43,1394.03 1913.5,1392.5 Z"/></g>
<g><path style="opacity:1" fill="#829445" d="M 1923.5,1408.5 C 1924.91,1408.97 1925.57,1409.97 1925.5,1411.5C 1924.09,1411.03 1923.43,1410.03 1923.5,1408.5 Z"/></g>
<g><path style="opacity:1" fill="#819445" d="M 1928.5,1416.5 C 1929.91,1416.97 1930.57,1417.97 1930.5,1419.5C 1929.09,1419.03 1928.43,1418.03 1928.5,1416.5 Z"/></g>
<g><path style="opacity:1" fill="#76923f" d="M 1943.5,1442.5 C 1944.91,1442.97 1945.57,1443.97 1945.5,1445.5C 1944.09,1445.03 1943.43,1444.03 1943.5,1442.5 Z"/></g>
<g><path style="opacity:1" fill="#779240" d="M 1951.5,1457.5 C 1952.91,1457.97 1953.57,1458.97 1953.5,1460.5C 1952.09,1460.03 1951.43,1459.03 1951.5,1457.5 Z"/></g>
<g><path style="opacity:1" fill="#7aa950" d="M 2026.5,1513.5 C 2027.92,1515.51 2028.59,1517.85 2028.5,1520.5C 2027.08,1518.49 2026.41,1516.15 2026.5,1513.5 Z"/></g>
<g><path style="opacity:1" fill="#79913f" d="M 2029.5,1523.5 C 2030.67,1524.51 2031.34,1525.85 2031.5,1527.5C 2029.9,1526.71 2029.23,1525.38 2029.5,1523.5 Z"/></g>
<g><path style="opacity:1" fill="#75a84e" d="M 2032.5,1533.5 C 2033.92,1535.51 2034.59,1537.85 2034.5,1540.5C 2033.08,1538.49 2032.41,1536.15 2032.5,1533.5 Z"/></g>
<g><path style="opacity:1" fill="#749c45" d="M 2035.5,1545.5 C 2036.92,1547.51 2037.59,1549.85 2037.5,1552.5C 2036.08,1550.49 2035.41,1548.15 2035.5,1545.5 Z"/></g>
<g><path style="opacity:0.981" fill="#7f5b30" d="M 994.5,1523.5 C 995.833,1568.5 995.833,1613.5 994.5,1658.5C 993.263,1613.62 993.263,1568.62 994.5,1523.5 Z"/></g>
<g><path style="opacity:1" fill="#6fa549" d="M 1994.5,1566.5 C 1996,1571.24 1996.67,1576.24 1996.5,1581.5C 1996.5,1585.02 1996.17,1588.35 1995.5,1591.5C 1995.62,1583.14 1995.29,1574.81 1994.5,1566.5 Z"/></g>
<g><path style="opacity:1" fill="#789440" d="M 1635.5,1579.5 C 1638.17,1580.17 1639.83,1581.83 1640.5,1584.5C 1638.5,1583.17 1636.83,1581.5 1635.5,1579.5 Z"/></g>
<g><path style="opacity:1" fill="#8a964a" d="M 2040.5,1602.5 C 2040.92,1606.82 2040.25,1610.82 2038.5,1614.5C 2038.72,1610.29 2039.38,1606.29 2040.5,1602.5 Z"/></g>
<g><path style="opacity:1" fill="#7dab53" d="M 1993.5,1611.5 C 1993.59,1614.15 1992.92,1616.49 1991.5,1618.5C 1991.41,1615.85 1992.08,1613.51 1993.5,1611.5 Z"/></g>
<g><path style="opacity:1" fill="#73923d" d="M 2026.5,1651.5 C 2026.57,1653.03 2025.91,1654.03 2024.5,1654.5C 2024.43,1652.97 2025.09,1651.97 2026.5,1651.5 Z"/></g>
<g><path style="opacity:1" fill="#7e9242" d="M 2020.5,1660.5 C 2018.91,1663.76 2016.57,1666.43 2013.5,1668.5C 2015.09,1665.24 2017.43,1662.57 2020.5,1660.5 Z"/></g>
<g><path style="opacity:1" fill="#74923e" d="M 1760.5,1662.5 C 1761.91,1662.97 1762.57,1663.97 1762.5,1665.5C 1761.09,1665.03 1760.43,1664.03 1760.5,1662.5 Z"/></g>
<g><path style="opacity:1" fill="#75a94e" d="M 1807.5,1670.5 C 1808.92,1672.51 1809.59,1674.85 1809.5,1677.5C 1808.08,1675.49 1807.41,1673.15 1807.5,1670.5 Z"/></g>
<g><path style="opacity:1" fill="#77a84e" d="M 1868.5,1676.5 C 1871.15,1676.41 1873.49,1677.08 1875.5,1678.5C 1872.85,1678.59 1870.51,1677.92 1868.5,1676.5 Z"/></g>
<g><path style="opacity:1" fill="#7b9342" d="M 1767.5,1675.5 C 1768.91,1675.97 1769.57,1676.97 1769.5,1678.5C 1768.09,1678.03 1767.43,1677.03 1767.5,1675.5 Z"/></g>
<g><path style="opacity:1" fill="#7baa51" d="M 1881.5,1680.5 C 1884.15,1680.41 1886.49,1681.08 1888.5,1682.5C 1885.85,1682.59 1883.51,1681.92 1881.5,1680.5 Z"/></g>
<g><path style="opacity:1" fill="#7f9343" d="M 1770.5,1680.5 C 1771.91,1680.97 1772.57,1681.97 1772.5,1683.5C 1771.09,1683.03 1770.43,1682.03 1770.5,1680.5 Z"/></g>
<g><path style="opacity:1" fill="#7d9343" d="M 1772.5,1683.5 C 1773.91,1683.97 1774.57,1684.97 1774.5,1686.5C 1773.09,1686.03 1772.43,1685.03 1772.5,1683.5 Z"/></g>
<g><path style="opacity:1" fill="#77a24a" d="M 1905.5,1686.5 C 1908.15,1686.41 1910.49,1687.08 1912.5,1688.5C 1909.85,1688.59 1907.51,1687.92 1905.5,1686.5 Z"/></g>
<g><path style="opacity:1" fill="#889347" d="M 1928.5,1690.5 C 1937.15,1691.2 1945.82,1691.54 1954.5,1691.5C 1951.52,1692.16 1948.35,1692.5 1945,1692.5C 1939.27,1692.59 1933.77,1691.92 1928.5,1690.5 Z"/></g>
<g><path style="opacity:1" fill="#6ca74a" d="M 1810.5,1700.5 C 1810.93,1703.88 1810.27,1706.88 1808.5,1709.5C 1808.86,1706.31 1809.53,1703.31 1810.5,1700.5 Z"/></g>
<g><path style="opacity:1" fill="#6c4a22" d="M 2065.5,1785.5 C 2065.5,1792.83 2065.5,1800.17 2065.5,1807.5C 2034.66,1807.83 2004,1807.5 1973.5,1806.5C 2003.83,1806.5 2034.17,1806.5 2064.5,1806.5C 2064.18,1799.31 2064.51,1792.31 2065.5,1785.5 Z"/></g>
<g><path style="opacity:1" fill="#ba955f" d="M 2290.5,1988.5 C 1890.17,1989.83 1489.83,1989.83 1089.5,1988.5C 1153.3,1929.87 1216.96,1871.04 1280.5,1812C 1543.5,1813.24 1806.5,1814.57 2069.5,1816C 2143.04,1873.71 2216.71,1931.21 2290.5,1988.5 Z"/></g>
<g><path style="opacity:1" fill="#5d3b16" d="M 1089.5,1988.5 C 1489.83,1989.83 1890.17,1989.83 2290.5,1988.5C 2291.04,1988.56 2291.38,1988.89 2291.5,1989.5C 1890.17,1990.83 1488.83,1990.83 1087.5,1989.5C 1087.96,1988.7 1088.62,1988.37 1089.5,1988.5 Z"/></g>
</svg>
